<svg xmlns="http://www.w3.org/2000/svg" width="32" height="32" viewBox="0 0 32 32">
  <rect width="32" height="32" rx="7" fill="#0e0f0c"/>
  <path d="M16 6.5c-3 0-5 1.9-5 4.2 0 .5.1 1 .3 1.4-1 .7-1.6 1.7-1.6 2.9 0 1 .5 1.9 1.2 2.6-.2.4-.3.9-.3 1.4 0 2.3 2 4 4.4 4 .4 0 .7 0 1-.1"
        fill="none" stroke="#c6f24e" stroke-width="1.8" stroke-linecap="round" stroke-linejoin="round"/>
  <path d="M16 6.5c3 0 5 1.9 5 4.2 0 .5-.1 1-.3 1.4 1 .7 1.6 1.7 1.6 2.9 0 1-.5 1.9-1.2 2.6.2.4.3.9.3 1.4 0 2.3-2 4-4.4 4-.4 0-.7 0-1-.1"
        fill="none" stroke="#c6f24e" stroke-width="1.8" stroke-linecap="round" stroke-linejoin="round"/>
  <line x1="16" y1="8" x2="16" y2="25" stroke="#c6f24e" stroke-width="1.8" stroke-linecap="round"/>
</svg>
